HIERARCHY
ROOT Hips
{
	OFFSET 0.00 0.00 0.00
	CHANNELS 6 Xposition Yposition Zposition Xrotation Yrotation Zrotation
	JOINT LeftUpLeg
	{
		OFFSET 3.25772 0.00000 0.00000
		CHANNELS 3 Xrotation Yrotation Zrotation
		JOINT LeftLeg
		{
			OFFSET 0.00000 -15.35355 0.00000
			CHANNELS 3 Xrotation Yrotation Zrotation
			JOINT LeftFoot
			{
				OFFSET 0.00000 -16.48949 0.00000
				CHANNELS 3 Xrotation Yrotation Zrotation
				JOINT LeftToeBase
				{
					OFFSET 0.00000 -1.72224 6.42750
					CHANNELS 3 Xrotation Yrotation Zrotation
					End Site
					{
						OFFSET 0.00000 0.00000 2.95275
					}
				}
			}
		}
	}
	JOINT RightUpLeg
	{
		OFFSET -3.25772 0.00000 0.00000
		CHANNELS 3 Xrotation Yrotation Zrotation
		JOINT RightLeg
		{
			OFFSET 0.00000 -15.35355 0.00000
			CHANNELS 3 Xrotation Yrotation Zrotation
			JOINT RightFoot
			{
				OFFSET 0.00000 -16.48949 0.00000
				CHANNELS 3 Xrotation Yrotation Zrotation
				JOINT RightToeBase
				{
					OFFSET 0.00000 -1.72224 6.42750
					CHANNELS 3 Xrotation Yrotation Zrotation
					End Site
					{
						OFFSET 0.00000 0.00000 2.95275
					}
				}
			}
		}
	}
	JOINT Spine
	{
		OFFSET 0.00000 0.03937 0.00000
		CHANNELS 3 Xrotation Yrotation Zrotation
		JOINT Spine1
		{
			OFFSET 0.00000 10.14986 0.00000
			CHANNELS 3 Xrotation Yrotation Zrotation
			JOINT Neck
			{
				OFFSET 0.00000 9.84250 0.00000
				CHANNELS 3 Xrotation Yrotation Zrotation
				JOINT Head
				{
					OFFSET 0.00000 4.54023 0.00000
					CHANNELS 3 Xrotation Yrotation Zrotation
					End Site
					{
						OFFSET 0.00000 4.52755 0.00000
					}
				}
			}
			JOINT LeftShoulder
			{
				OFFSET 0.00000 9.84250 0.00000
				CHANNELS 3 Xrotation Yrotation Zrotation
				JOINT LeftArm
				{
					OFFSET 7.21510 -0.00003 0.00000
					CHANNELS 3 Xrotation Yrotation Zrotation
					JOINT LeftForeArm
					{
						OFFSET 10.66411 -0.00004 0.00000
						CHANNELS 3 Xrotation Yrotation Zrotation
						JOINT LeftHand
						{
							OFFSET 8.93656 -0.00003 0.00000
							CHANNELS 3 Xrotation Yrotation Zrotation
							JOINT L_Wrist_End
							{
								OFFSET 3.93700 -0.00001 0.00000
								CHANNELS 3 Xrotation Yrotation Zrotation
							}
						}
					}
				}
			}
			JOINT RightShoulder
			{
				OFFSET 0.00000 9.84250 0.00000
				CHANNELS 3 Xrotation Yrotation Zrotation
				JOINT RightArm
				{
					OFFSET -7.21510 -0.00003 0.00000
					CHANNELS 3 Xrotation Yrotation Zrotation
					JOINT RightForeArm
					{
						OFFSET -10.66411 -0.00004 0.00000
						CHANNELS 3 Xrotation Yrotation Zrotation
						JOINT RightHand
						{
							OFFSET -8.93656 -0.00003 0.00000
							CHANNELS 3 Xrotation Yrotation Zrotation
							JOINT R_Wrist_End
							{
								OFFSET -5.41338 -0.00002 0.00000
								CHANNELS 3 Xrotation Yrotation Zrotation
							}
						}
					}
				}
			}
		}
	}
}
MOTION
Frames: 10
Frame Time: 0.008333
 0.1662 33.8600 1.3922 1.2159 -0.7233 -1.9316 3.3702 21.1424 8.9107 2.0086 -0.0000 -0.0000 -1.0183 -0.7362 -0.1052 -34.7267 0.0000 0.0000 5.8088 6.8686 1.9039 3.1513 -0.0000 0.0000 -2.4672 -14.0580 -0.9188 -31.0386 0.0000 -0.0000 -16.8819 -2.0028 -3.5482 28.1442 3.6919 4.2237 -21.5038 -20.5652 4.4727 -5.1135 -5.7474 -12.2683 9.1383 9.2694 15.8982 -21.5242 13.3103 -30.5016 -0.0000 -10.1069 -0.0000 -1.9582 3.9567 20.6858 -0.0000 0.0000 -0.0000 9.0827 -5.4099 -15.8533 -9.6602 -3.8457 25.3185 -0.0001 21.4608 0.0000 -20.2450 -12.9356 -20.2506 -0.0000 0.0000 -0.0000
 0.1640 33.8582 1.3893 1.2264 -0.7443 -1.8960 3.3521 21.2256 8.8835 2.0195 -0.0000 0.0000 -1.0331 -0.8325 -0.1241 -34.6267 0.0000 -0.0000 5.7789 6.9222 1.8713 3.1771 -0.0000 0.0000 -2.5033 -14.0959 -0.8564 -31.0374 0.0000 -0.0000 -16.8451 -1.9888 -3.5743 28.0877 3.7204 4.2285 -21.8079 -20.9392 4.0533 -4.5318 -5.4006 -11.7982 9.1322 9.2585 15.8952 -21.5096 13.2650 -30.5279 -0.0000 -10.0705 -0.0000 -1.9930 3.9777 20.5911 -0.0000 -0.0000 0.0000 9.0773 -5.4608 -15.8929 -9.6537 -3.8024 25.3710 -0.0001 21.4359 0.0000 -20.1929 -12.9155 -20.2325 -0.0000 -0.0000 0.0000
 0.1637 33.8585 1.3941 1.2410 -0.7247 -1.8859 3.3710 21.2137 8.8634 1.9736 0.0000 -0.0000 -1.0018 -0.8099 -0.1009 -34.6347 0.0000 -0.0000 5.7804 6.8691 1.8584 3.1775 -0.0000 0.0000 -2.5223 -14.0409 -0.8796 -31.0076 0.0000 -0.0000 -16.8461 -2.0108 -3.5843 28.0591 3.7035 4.2402 -21.9506 -21.0985 3.9258 -4.3239 -5.2756 -11.7025 9.2029 9.2659 15.8443 -21.5835 13.2860 -30.5024 -0.0000 -10.0716 -0.0000 -2.0096 3.8953 20.4722 -0.0000 -0.0000 0.0000 9.1309 -5.4690 -15.8850 -9.6691 -3.7791 25.3466 -0.0001 21.4650 0.0000 -20.2293 -12.9203 -20.2829 -0.0000 -0.0000 0.0000
 0.1623 33.8588 1.3971 1.2399 -0.7295 -1.8818 3.3624 21.2311 8.8713 2.0015 0.0000 -0.0000 -0.9966 -0.8274 -0.0597 -34.7229 0.0000 0.0000 5.7791 6.8141 1.8621 3.1950 -0.0000 0.0000 -2.5259 -14.0055 -0.8835 -31.0042 0.0000 -0.0000 -16.8456 -2.0137 -3.5845 28.0610 3.7010 4.2412 -21.9566 -21.0940 3.9214 -4.2960 -5.2522 -11.6990 9.2189 9.2611 15.8354 -21.5133 13.2658 -30.5221 -0.0000 -10.0864 -0.0000 -2.0120 3.9593 20.5694 -0.0000 -0.0000 0.0000 9.0794 -5.4623 -15.8917 -9.6754 -3.7752 25.3423 -0.0001 21.4626 0.0000 -20.1707 -12.9789 -20.2529 -0.0000 -0.0000 0.0000
 0.1600 33.8594 1.3977 1.2388 -0.7272 -1.8784 3.3465 21.2493 8.8781 2.0214 -0.0000 0.0000 -1.0056 -0.8682 -0.0681 -34.6860 0.0000 0.0000 5.7750 6.7808 1.8604 3.2044 -0.0000 0.0000 -2.5106 -13.9615 -0.8800 -31.0552 0.0000 -0.0000 -16.8423 -2.0139 -3.5887 28.0641 3.7003 4.2384 -21.9767 -21.1673 3.8837 -4.2507 -5.2405 -11.6698 9.1950 9.2541 15.8336 -21.5837 13.2769 -30.5080 -0.0000 -10.0406 -0.0000 -1.7420 3.9803 20.6297 -0.0000 -0.0000 0.0000 9.0817 -5.4677 -15.8912 -9.7262 -3.7706 25.3545 -0.0001 21.4266 0.0000 -20.1604 -12.9334 -20.2661 -0.0000 -0.0000 0.0000
 0.1578 33.8583 1.3987 1.2425 -0.7293 -1.8754 3.3446 21.2393 8.8832 2.0251 0.0000 0.0000 -1.0232 -0.8808 -0.1046 -34.6541 0.0000 0.0000 5.7769 6.7927 1.8635 3.2076 -0.0000 0.0000 -2.5480 -13.9837 -0.8881 -31.0037 0.0000 -0.0000 -16.8378 -2.0160 -3.5906 28.0707 3.6980 4.2370 -21.9997 -21.1003 3.8880 -4.2616 -5.1816 -11.6598 9.2112 9.2522 15.8232 -21.5893 13.2765 -30.5126 -0.0000 -10.0374 -0.0000 -1.8222 3.9568 20.6087 -0.0000 0.0000 -0.0000 9.0510 -5.4692 -15.8924 -9.7266 -3.7629 25.3517 -0.0001 21.4474 0.0000 -20.1996 -12.9702 -20.2744 -0.0000 0.0000 -0.0000
 0.1542 33.8580 1.4039 1.2446 -0.7295 -1.8730 3.3401 21.2770 8.8898 2.0317 -0.0000 -0.0000 -1.0194 -0.9177 -0.0857 -34.6203 0.0000 -0.0000 5.7709 6.7629 1.8653 3.2245 -0.0000 0.0000 -2.5479 -13.9477 -0.8808 -31.0311 0.0000 -0.0000 -16.8381 -2.0204 -3.5957 28.0617 3.6930 4.2360 -22.0014 -21.1651 3.8824 -4.2165 -5.2043 -11.6446 9.2037 9.2488 15.8174 -21.5694 13.2651 -30.5003 -0.0000 -10.0246 -0.0000 -1.9870 3.9784 20.6451 -0.0000 0.0000 -0.0000 9.0648 -5.4750 -15.8875 -9.7799 -3.7739 25.3471 -0.0001 21.4471 0.0000 -20.1101 -12.9856 -20.1990 -0.0000 0.0000 -0.0000
 0.1534 33.8588 1.4043 1.2477 -0.7293 -1.8716 3.3370 21.2595 8.8949 2.0298 0.0000 0.0000 -0.9722 -0.9308 -0.0228 -34.6837 0.0000 -0.0000 5.7711 6.7516 1.8641 3.2228 0.0000 0.0000 -2.5455 -13.9284 -0.8735 -31.0235 0.0000 -0.0000 -16.8319 -2.0212 -3.5952 28.0592 3.6930 4.2367 -22.0008 -21.1882 3.8732 -4.2124 -5.2036 -11.6387 9.2079 9.2454 15.8144 -21.5365 13.2510 -30.5181 -0.0000 -10.0328 -0.0000 -1.9624 3.9817 20.6202 -0.0000 0.0000 -0.0000 9.0429 -5.4713 -15.8869 -9.8057 -3.7773 25.3502 -0.0001 21.4209 0.0000 -20.0888 -12.9504 -20.1908 -0.0000 -0.0000 0.0000
 0.1508 33.8574 1.4055 1.2515 -0.7299 -1.8704 3.3320 21.2836 8.8933 2.0342 0.0000 0.0000 -0.9889 -0.9123 -0.0642 -34.7062 0.0000 0.0000 5.7751 6.7137 1.8711 3.2118 -0.0000 0.0000 -2.5536 -13.9101 -0.9023 -31.0131 0.0000 -0.0000 -16.8281 -2.0249 -3.5975 28.0561 3.6895 4.2367 -21.9984 -21.1846 3.8758 -4.2085 -5.1914 -11.6286 9.2229 9.2437 15.8129 -21.5636 13.2570 -30.5136 -0.0000 -10.0174 -0.0000 -2.1237 3.9663 20.5302 -0.0000 0.0000 -0.0000 9.0629 -5.4797 -15.8872 -9.8021 -3.7645 25.3407 -0.0001 21.4658 0.0000 -19.9042 -12.9277 -20.0403 -0.0000 -0.0000 0.0000
 0.1484 33.8579 1.4071 1.2572 -0.7228 -1.8677 3.3249 21.3082 8.8981 2.0346 -0.0000 -0.0000 -1.0121 -0.9430 -0.0570 -34.6741 0.0000 0.0000 5.7798 6.7173 1.8699 3.1986 -0.0000 0.0000 -2.5384 -13.9074 -0.8854 -31.0477 0.0000 -0.0000 -16.8266 -2.0267 -3.6011 28.0400 3.6880 4.2367 -21.9702 -21.2475 3.8653 -4.2066 -5.2011 -11.6400 9.2934 9.2432 15.7916 -21.6630 13.2719 -30.4999 -0.0000 -10.0193 -0.0000 -2.0094 4.0104 20.5861 -0.0000 0.0000 -0.0000 9.0974 -5.4795 -15.8712 -9.7925 -3.7333 25.3320 -0.0001 21.4181 0.0000 -20.0878 -12.9534 -20.1966 -0.0000 0.0000 -0.0000
